<svg width="345" height="257" viewBox="0 0 345 257" fill="none" xmlns="http://www.w3.org/2000/svg">
<path d="M344.874 225.824H0V225.996H344.874V225.824Z" fill="#E0E0E0"/>
<path d="M298.799 236.639H267.857V236.811H298.799V236.639Z" fill="#E0E0E0"/>
<path d="M263.318 236.639H257.325V236.811H263.318V236.639Z" fill="#E0E0E0"/>
<path d="M206.456 234.259H193.102V234.432H206.456V234.259Z" fill="#E0E0E0"/>
<path d="M85.6116 234.17H55.8214V234.342H85.6116V234.17Z" fill="#E0E0E0"/>
<path d="M49.6826 234.17H45.3165V234.342H49.6826V234.17Z" fill="#E0E0E0"/>
<path d="M195.185 230.086H130.569V230.259H195.185V230.086Z" fill="#E0E0E0"/>
<path d="M163.47 195.061H30.2869C29.2435 195.059 28.2435 194.643 27.5064 193.905C26.7693 193.167 26.3553 192.166 26.3553 191.122V3.90398C26.3644 2.86661 26.7824 1.87472 27.5185 1.14375C28.2546 0.412786 29.2495 0.00177706 30.2869 0H163.47C164.515 0 165.517 0.414944 166.255 1.15355C166.994 1.89216 167.409 2.89392 167.409 3.93846V191.122C167.409 192.167 166.994 193.169 166.255 193.907C165.517 194.646 164.515 195.061 163.47 195.061V195.061ZM30.2869 0.13795C29.2892 0.139777 28.3331 0.537359 27.6283 1.24343C26.9236 1.9495 26.5277 2.90636 26.5277 3.90398V191.122C26.5277 192.12 26.9236 193.077 27.6283 193.783C28.3331 194.489 29.2892 194.887 30.2869 194.888H163.47C164.469 194.887 165.426 194.489 166.131 193.783C166.837 193.078 167.235 192.121 167.236 191.122V3.90398C167.235 2.90572 166.837 1.94888 166.131 1.24301C165.426 0.537135 164.469 0.139774 163.47 0.13795H30.2869Z" fill="#E0E0E0"/>
<path d="M312.67 195.061H179.48C178.436 195.059 177.435 194.644 176.697 193.905C175.958 193.167 175.543 192.166 175.541 191.122V3.90398C175.552 2.86598 175.971 1.8741 176.709 1.14332C177.446 0.412545 178.441 0.00175768 179.48 0H312.67C313.706 0.00358979 314.699 0.415401 315.434 1.14617C316.169 1.87695 316.586 2.8678 316.595 3.90398V191.122C316.595 192.165 316.182 193.164 315.446 193.903C314.71 194.641 313.712 195.057 312.67 195.061V195.061ZM179.48 0.13795C178.481 0.139774 177.524 0.537135 176.819 1.24301C176.113 1.94888 175.715 2.90572 175.714 3.90398V191.122C175.715 192.121 176.113 193.078 176.819 193.783C177.524 194.489 178.481 194.887 179.48 194.888H312.67C313.668 194.887 314.625 194.489 315.331 193.783C316.037 193.078 316.434 192.121 316.436 191.122V3.90398C316.434 2.90572 316.037 1.94888 315.331 1.24301C314.625 0.537135 313.668 0.139774 312.67 0.13795H179.48Z" fill="#E0E0E0"/>
<path d="M162.125 43.53H79.6591V225.906H162.125V43.53Z" fill="#E6E6E6"/>
<path d="M162.125 43.53H83.5699V225.906H162.125V43.53Z" fill="#F0F0F0"/>
<path d="M157.987 221.768V47.6685L87.7084 47.6685L87.7084 221.768H157.987Z" fill="#EBEBEB"/>
<path d="M157.987 221.775V47.6754H156.911V221.775H157.987Z" fill="#E6E6E6"/>
<path d="M148.599 130.707C150.546 130.707 152.124 129.129 152.124 127.183C152.124 125.236 150.546 123.658 148.599 123.658C146.653 123.658 145.075 125.236 145.075 127.183C145.075 129.129 146.653 130.707 148.599 130.707Z" fill="#E6E6E6"/>
<path d="M149.979 129.976C151.926 129.976 153.504 128.398 153.504 126.452C153.504 124.505 151.926 122.927 149.979 122.927C148.032 122.927 146.454 124.505 146.454 126.452C146.454 128.398 148.032 129.976 149.979 129.976Z" fill="#FAFAFA"/>
<path d="M291.943 21.0787H198.344V161.167H291.943V21.0787Z" fill="#E0E0E0"/>
<path d="M294.019 21.0787H200.42V161.167H294.019V21.0787Z" fill="#F0F0F0"/>
<path d="M290.288 156.973V25.2724L204.159 25.2724V156.973H290.288Z" fill="#FAFAFA"/>
<path d="M290.288 156.973V25.2724H288.715V156.973H290.288Z" fill="#E0E0E0"/>
<path d="M292.474 66.3331H201.965V71.9615H292.474V66.3331Z" fill="#F0F0F0"/>
<path d="M298.089 14.1398H194.275C194.123 14.1398 193.977 14.2001 193.87 14.3075C193.762 14.4149 193.702 14.5605 193.702 14.7123V14.7123C193.702 14.8648 193.762 15.0111 193.869 15.1196C193.977 15.2281 194.122 15.2899 194.275 15.2917H298.089C298.242 15.2899 298.388 15.2283 298.496 15.12C298.605 15.0118 298.666 14.8654 298.668 14.7123V14.7123C298.666 14.5599 298.604 14.4143 298.496 14.3071C298.388 14.1999 298.241 14.1398 298.089 14.1398V14.1398Z" fill="#E0E0E0"/>
<path d="M301.537 14.7124C301.539 15.2815 301.371 15.8383 301.056 16.3122C300.741 16.7861 300.292 17.1558 299.767 17.3746C299.241 17.5933 298.663 17.6513 298.104 17.5411C297.546 17.4309 297.033 17.1575 296.63 16.7555C296.227 16.3536 295.952 15.8411 295.841 15.2829C295.729 14.7248 295.786 14.1461 296.003 13.6202C296.221 13.0942 296.589 12.6446 297.063 12.3282C297.536 12.0119 298.092 11.843 298.661 11.843C299.423 11.843 300.153 12.1451 300.693 12.683C301.232 13.2209 301.536 13.9507 301.537 14.7124V14.7124Z" fill="#E0E0E0"/>
<path d="M199.117 17.9335C198.911 17.9316 198.715 17.8487 198.57 17.7028C198.425 17.5568 198.344 17.3596 198.344 17.1541V15.4918C198.344 15.2862 198.425 15.089 198.57 14.943C198.715 14.7971 198.911 14.7142 199.117 14.7123V14.7123C199.323 14.7141 199.52 14.7968 199.666 14.9426C199.812 15.0884 199.894 15.2856 199.896 15.4918V17.1541C199.894 17.3602 199.812 17.5574 199.666 17.7032C199.52 17.849 199.323 17.9317 199.117 17.9335Z" fill="#E0E0E0"/>
<path d="M289.425 17.9335C289.219 17.9317 289.022 17.849 288.876 17.7032C288.731 17.5574 288.648 17.3602 288.646 17.1541V15.4918C288.648 15.2856 288.731 15.0884 288.876 14.9426C289.022 14.7968 289.219 14.7141 289.425 14.7123V14.7123C289.631 14.7142 289.827 14.7971 289.972 14.943C290.117 15.089 290.198 15.2862 290.198 15.4918V17.1541C290.198 17.3596 290.117 17.5568 289.972 17.7028C289.827 17.8487 289.631 17.9316 289.425 17.9335V17.9335Z" fill="#E0E0E0"/>
<path opacity="0.4" d="M297.909 14.7123H201.965V54.9454H297.909V14.7123Z" fill="#E0E0E0"/>
<path d="M211.236 14.7124C211.237 15.2815 211.069 15.8383 210.754 16.3122C210.439 16.7861 209.99 17.1558 209.465 17.3746C208.939 17.5933 208.361 17.6513 207.802 17.5411C207.244 17.4309 206.731 17.1575 206.328 16.7555C205.925 16.3536 205.65 15.8411 205.539 15.2829C205.427 14.7248 205.484 14.1461 205.701 13.6202C205.919 13.0942 206.287 12.6446 206.761 12.3282C207.234 12.0119 207.79 11.843 208.359 11.843C209.121 11.843 209.851 12.1451 210.391 12.683C210.93 13.2209 211.234 13.9507 211.236 14.7124Z" fill="#E0E0E0"/>
<path d="M212.967 182.266H194.495V223.23H212.967V182.266Z" fill="#E6E6E6"/>
<path d="M289.156 223.23H198.048V225.824H289.156V223.23Z" fill="#E6E6E6"/>
<path d="M212.967 223.23H292.695V182.266H212.967V223.23Z" fill="#F0F0F0"/>
<path d="M220.23 200.745H285.432V187.308H220.23V200.745Z" fill="#E6E6E6"/>
<path d="M220.23 218.181H285.432V204.745H220.23V218.181Z" fill="#E6E6E6"/>
<path d="M261.146 193.102H244.53C244.08 193.102 243.716 193.466 243.716 193.916V194.13C243.716 194.579 244.08 194.944 244.53 194.944H261.146C261.595 194.944 261.96 194.579 261.96 194.13V193.916C261.96 193.466 261.595 193.102 261.146 193.102Z" fill="#F0F0F0"/>
<path d="M261.146 210.546H244.53C244.08 210.546 243.716 210.91 243.716 211.36V211.573C243.716 212.023 244.08 212.387 244.53 212.387H261.146C261.595 212.387 261.96 212.023 261.96 211.573V211.36C261.96 210.91 261.595 210.546 261.146 210.546Z" fill="#F0F0F0"/>
<path d="M235.977 176.224C238.224 176.224 240.046 174.402 240.046 172.154C240.046 169.907 238.224 168.085 235.977 168.085C233.729 168.085 231.907 169.907 231.907 172.154C231.907 174.402 233.729 176.224 235.977 176.224Z" fill="#F0F0F0"/>
<path d="M242.378 175.458C244.625 175.458 246.447 173.636 246.447 171.389C246.447 169.141 244.625 167.319 242.378 167.319C240.13 167.319 238.308 169.141 238.308 171.389C238.308 173.636 240.13 175.458 242.378 175.458Z" fill="#F0F0F0"/>
<path d="M266.14 173.272C266.14 174.077 265.901 174.863 265.454 175.533C265.007 176.202 264.371 176.723 263.627 177.031C262.884 177.339 262.066 177.42 261.276 177.263C260.487 177.106 259.762 176.718 259.192 176.149C258.623 175.58 258.236 174.855 258.079 174.066C257.922 173.276 258.002 172.458 258.31 171.714C258.618 170.971 259.14 170.335 259.809 169.888C260.478 169.441 261.265 169.202 262.07 169.202C263.149 169.202 264.184 169.631 264.948 170.394C265.711 171.157 266.14 172.192 266.14 173.272V173.272Z" fill="#F0F0F0"/>
<path d="M255.635 175.148C255.636 175.955 255.398 176.744 254.951 177.415C254.503 178.087 253.867 178.61 253.121 178.92C252.376 179.229 251.556 179.31 250.765 179.153C249.973 178.996 249.246 178.608 248.676 178.037C248.105 177.467 247.717 176.74 247.56 175.948C247.403 175.157 247.484 174.337 247.793 173.592C248.103 172.846 248.626 172.21 249.298 171.763C249.969 171.315 250.758 171.077 251.565 171.078C252.644 171.078 253.68 171.507 254.443 172.27C255.206 173.033 255.635 174.069 255.635 175.148V175.148Z" fill="#F0F0F0"/>
<path d="M224.168 172.899C224.168 172.899 224.858 182.266 250.103 182.266C275.348 182.266 276.037 172.899 276.037 172.899H224.168Z" fill="#E6E6E6"/>
<path d="M42.6265 167.837H30.0524V222.368H42.6265V167.837Z" fill="#E6E6E6"/>
<path d="M94.4748 222.368H32.4664V225.824H94.4748V222.368Z" fill="#E6E6E6"/>
<path d="M42.6195 222.368H96.8821V167.837H42.6195L42.6195 222.368Z" fill="#F0F0F0"/>
<path d="M47.5719 192.44H91.9435V174.555H47.5719V192.44Z" fill="#E6E6E6"/>
<path d="M47.5719 215.657H91.9435V197.772H47.5719V215.657Z" fill="#E6E6E6"/>
<path d="M74.7343 184.722H64.7743C64.6113 184.722 64.45 184.689 64.2996 184.626C64.1493 184.563 64.013 184.471 63.8988 184.355C63.7845 184.238 63.6945 184.101 63.634 183.949C63.5735 183.798 63.5438 183.636 63.5466 183.473C63.5466 183.147 63.6759 182.835 63.9062 182.605C64.1364 182.375 64.4487 182.245 64.7743 182.245H74.7343C75.0599 182.245 75.3722 182.375 75.6024 182.605C75.8327 182.835 75.962 183.147 75.962 183.473V183.473C75.9648 183.636 75.9351 183.798 75.8746 183.949C75.8141 184.101 75.7241 184.238 75.6098 184.355C75.4956 184.471 75.3593 184.563 75.209 184.626C75.0586 184.689 74.8973 184.722 74.7343 184.722V184.722Z" fill="#F0F0F0"/>
<path d="M74.7342 207.939H64.7743C64.4486 207.939 64.1364 207.809 63.9061 207.579C63.6759 207.349 63.5465 207.036 63.5465 206.711C63.5483 206.386 63.6785 206.076 63.9085 205.847C64.1386 205.618 64.4498 205.49 64.7743 205.49H74.7342C75.0587 205.49 75.3699 205.618 75.6 205.847C75.83 206.076 75.9602 206.386 75.962 206.711V206.711C75.962 207.036 75.8326 207.349 75.6024 207.579C75.3721 207.809 75.0599 207.939 74.7342 207.939V207.939Z" fill="#F0F0F0"/>
<path d="M67.1539 157.352C67.1539 157.352 56.8077 139.481 71.1752 125.251C71.1752 125.251 74.9274 127.693 74.8722 130.983C74.817 134.273 70.851 135.122 71.6994 137.881C72.5478 140.64 76.2931 143.323 73.8376 145.592C71.3821 147.861 74.2307 149.882 74.0652 152.662C73.8997 155.442 67.1539 157.352 67.1539 157.352Z" fill="#F0F0F0"/>
<path d="M52.0554 154.504C52.0554 154.504 52.4002 167.837 65.6227 167.837C78.8452 167.837 79.1832 154.504 79.1832 154.504H52.0554Z" fill="#E6E6E6"/>
<path d="M67.9403 158.987C67.9403 158.987 72.1477 138.757 54.0073 129.79C54.0073 129.79 51.2483 133.294 52.3106 136.398C53.3728 139.502 57.4216 139.04 57.4837 141.916C57.5458 144.792 54.835 148.524 57.8837 149.903C60.9324 151.283 58.8632 154.104 59.8978 156.69C60.9324 159.277 67.9403 158.987 67.9403 158.987Z" fill="#E6E6E6"/>
<path d="M61.6842 59.2425H40.9849V111.312H61.6842V59.2425Z" fill="#E0E0E0"/>
<path d="M65.871 59.2425H43.9025V111.312H65.871V59.2425Z" fill="#F0F0F0"/>
<path d="M62.5257 107.966V62.5878H47.2478V107.966H62.5257Z" fill="#FAFAFA"/>
<path d="M172.437 256.973C246.297 256.973 306.173 253.477 306.173 249.165C306.173 244.853 246.297 241.357 172.437 241.357C98.5772 241.357 38.7018 244.853 38.7018 249.165C38.7018 253.477 98.5772 256.973 172.437 256.973Z" fill="#F5F5F5"/>
<path d="M252.903 96.8338C252.793 98.772 252.558 100.552 252.296 102.4C252.034 104.249 251.655 106.042 251.255 107.849C250.434 111.536 249.215 115.123 247.62 118.547C247.057 119.624 246.283 120.576 245.344 121.347C244.573 122.004 243.752 122.599 242.888 123.127C241.277 124.114 239.597 124.983 237.86 125.727C234.489 127.172 231.011 128.355 227.458 129.266L226.603 126.707C228.19 126.017 229.817 125.251 231.39 124.472C232.963 123.693 234.535 122.906 236.039 122.051C237.525 121.236 238.961 120.331 240.336 119.34C240.97 118.886 241.569 118.386 242.129 117.844C242.558 117.451 242.911 116.984 243.171 116.464C243.801 114.921 244.342 113.344 244.792 111.739C245.233 110.091 245.64 108.429 245.985 106.739C246.33 105.049 246.606 103.338 246.854 101.621C247.102 99.9032 247.303 98.1719 247.454 96.5165L252.903 96.8338Z" fill="#E58A7B"/>
<path d="M249.186 90.3571C246.985 90.9158 245.447 99.9722 245.447 99.9722L251.51 104.111C251.51 104.111 257.325 94.9784 255.648 92.5643C253.869 89.9915 252.4 89.5087 249.186 90.3571Z" fill="#407BFF"/>
<path opacity="0.5" d="M249.186 90.3571C246.985 90.9158 245.447 99.9722 245.447 99.9722L251.51 104.111C251.51 104.111 257.325 94.9784 255.648 92.5643C253.869 89.9915 252.4 89.5087 249.186 90.3571Z" fill="black"/>
<path d="M249.386 92.3505L247.696 101.476L251.103 103.786L249.386 92.3505Z" fill="#407BFF"/>
<path opacity="0.7" d="M249.386 92.3505L247.696 101.476L251.103 103.786L249.386 92.3505Z" fill="black"/>
<path d="M227.852 126.569L224.065 122.734L223.568 128.142C223.568 128.142 226.403 130.059 228.396 129.031L227.852 126.569Z" fill="#E58A7B"/>
<path d="M219.609 122.161L219.437 126.707L223.568 128.141L224.065 122.734L219.609 122.161Z" fill="#E58A7B"/>
<path d="M261.091 242.709H255.752L255.393 230.349H260.732L261.091 242.709Z" fill="#E58A7B"/>
<path d="M308.194 217.919L304.124 221.375L294.812 213.063L298.882 209.608L308.194 217.919Z" fill="#E58A7B"/>
<path d="M303.013 220.961L306.938 216.443C307.003 216.363 307.096 216.31 307.198 216.295C307.3 216.279 307.404 216.303 307.49 216.36L311.511 218.968C311.61 219.037 311.694 219.126 311.756 219.229C311.818 219.333 311.858 219.448 311.872 219.568C311.886 219.688 311.875 219.81 311.839 219.925C311.803 220.04 311.743 220.146 311.663 220.237C310.283 221.789 309.504 222.465 307.773 224.451C306.704 225.672 305.269 227.569 303.8 229.279C302.331 230.99 300.579 229.597 301.041 228.762C303.11 225.024 302.613 223.706 302.648 221.865C302.656 221.529 302.786 221.208 303.013 220.961Z" fill="#263238"/>
<path d="M255.566 242.102H261.567C261.67 242.101 261.77 242.137 261.849 242.204C261.928 242.272 261.979 242.365 261.994 242.467L262.684 247.213C262.697 247.332 262.684 247.453 262.646 247.568C262.609 247.682 262.548 247.787 262.467 247.876C262.387 247.966 262.288 248.037 262.178 248.085C262.068 248.134 261.949 248.158 261.829 248.158C259.759 248.158 258.725 247.999 256.09 247.999C254.469 247.999 251.11 248.172 248.875 248.172C246.64 248.172 246.509 245.951 247.447 245.751C251.627 244.854 253.276 243.612 254.683 242.426C254.932 242.221 255.243 242.107 255.566 242.102V242.102Z" fill="#263238"/>
<path d="M255.393 230.355L255.579 236.729H260.918L260.739 230.355H255.393Z" fill="#CF6F64"/>
<path d="M298.889 209.608L294.819 213.063L299.62 217.347L303.689 213.891L298.889 209.608Z" fill="#CF6F64"/>
<path d="M249.186 90.3571C249.186 90.3571 246.647 91.2537 251.738 122.575H273.416C273.051 113.753 273.044 108.311 277.258 90.1984C274.225 89.5682 271.15 89.1602 268.057 88.9776C264.778 88.7393 261.486 88.7393 258.207 88.9776C253.979 89.35 249.186 90.3571 249.186 90.3571Z" fill="#407BFF"/>
<path opacity="0.5" d="M249.186 90.3571C249.186 90.3571 246.647 91.2537 251.738 122.575H273.416C273.051 113.753 273.044 108.311 277.258 90.1984C274.225 89.5682 271.15 89.1602 268.057 88.9776C264.778 88.7393 261.486 88.7393 258.207 88.9776C253.979 89.35 249.186 90.3571 249.186 90.3571Z" fill="black"/>
<path d="M261.415 91.2261L263.374 95.2267C263.374 95.2267 271.589 92.716 270.513 89.1017L267.754 88.7844L261.415 91.2261Z" fill="#407BFF"/>
<path opacity="0.6" d="M261.415 91.2261L263.374 95.2267C263.374 95.2267 271.589 92.716 270.513 89.1017L267.754 88.7844L261.415 91.2261Z" fill="#FAFAFA"/>
<path d="M261.263 90.8537L258.504 94.937C258.504 94.937 252.655 92.3987 256.69 88.9844L258.407 88.7844L261.263 90.8537Z" fill="#407BFF"/>
<path opacity="0.6" d="M261.263 90.8537L258.504 94.937C258.504 94.937 252.655 92.3987 256.69 88.9844L258.407 88.7844L261.263 90.8537Z" fill="#FAFAFA"/>
<path d="M270.071 61.3876C272.602 58.9528 270.175 47.5099 276.838 51.2966C285.308 56.1249 290.777 49.8068 287.949 47.4064C293.895 47.8272 293.316 54.5936 290.839 58.2286C284.556 67.4781 271.878 58.6838 271.802 63.381C271.727 68.0782 270.071 61.3876 270.071 61.3876Z" fill="#263238"/>
<path d="M266.415 59.7391C269.319 57.4423 279.238 59.3529 272.437 68.6024L266.415 59.7391Z" fill="#407BFF"/>
<path opacity="0.3" d="M266.415 59.7391C269.319 57.4423 279.238 59.3529 272.437 68.6024L266.415 59.7391Z" fill="black"/>
<path d="M267.947 64.0363C276.403 65.2985 276.996 79.0383 263.87 81.1696L267.947 64.0363Z" fill="#263238"/>
<path d="M267.078 77.8795C266.457 81.0455 265.836 86.8462 268.057 88.9638C268.057 88.9638 267.188 92.1711 261.304 92.1711C254.835 92.1711 258.207 88.9638 258.207 88.9638C261.739 88.1154 261.656 85.515 261.035 83.0388L267.078 77.8795Z" fill="#E58A7B"/>
<path d="M264.615 80.0109L261.035 83.0596C261.193 83.6324 261.294 84.2191 261.339 84.8115C262.718 84.6115 264.546 83.1285 264.691 81.7214C264.77 81.1514 264.745 80.5717 264.615 80.0109Z" fill="#CF6F64"/>
<path d="M253.731 74.2101C250.813 70.4509 247.013 60.7531 258.387 59.8219L253.731 74.2101Z" fill="#263238"/>
<path d="M266.864 69.7957C267.554 75.0516 267.967 77.2588 265.871 80.4316C262.718 85.2116 256.111 84.9288 253.862 79.9902C251.827 75.5482 251.027 67.7057 255.697 64.6432C256.724 63.9628 257.908 63.5563 259.137 63.4623C260.366 63.3684 261.598 63.59 262.717 64.1062C263.836 64.6225 264.804 65.4162 265.53 66.412C266.256 67.4077 266.715 68.5725 266.864 69.7957V69.7957Z" fill="#E58A7B"/>
<path d="M251.758 122.548C251.758 122.548 247.551 163.664 247.896 179.942C248.261 196.875 254.469 235.494 254.469 235.494H261.684C261.684 235.494 260.539 197.861 261.18 181.238C261.87 163.105 267.636 122.548 267.636 122.548H251.758Z" fill="#407BFF"/>
<path opacity="0.6" d="M251.758 122.548C251.758 122.548 247.551 163.664 247.896 179.942C248.261 196.875 254.469 235.494 254.469 235.494H261.684C261.684 235.494 260.539 197.861 261.18 181.238C261.87 163.105 267.636 122.548 267.636 122.548H251.758Z" fill="#FAFAFA"/>
<path d="M262.291 235.749H253.821L253.2 233.052L262.684 232.721L262.291 235.749Z" fill="#407BFF"/>
<path opacity="0.4" d="M262.291 235.749H253.821L253.2 233.052L262.684 232.721L262.291 235.749Z" fill="#FAFAFA"/>
<path d="M261.091 132.777C255.766 143.488 260.021 163.029 261.904 170.299C262.87 159.38 264.498 146.034 265.767 136.232C264.96 130.687 263.546 127.838 261.091 132.777Z" fill="#407BFF"/>
<path opacity="0.4" d="M261.091 132.777C255.766 143.488 260.021 163.029 261.904 170.299C262.87 159.38 264.498 146.034 265.767 136.232C264.96 130.687 263.546 127.838 261.091 132.777Z" fill="#FAFAFA"/>
<path d="M257.462 122.548C257.462 122.548 262.374 165.312 266.084 179.017C270.485 195.316 297.813 217.243 297.813 217.243L303.365 212.525C303.365 212.525 283.542 188.708 280.176 180.107C272.989 161.787 279.141 134.487 273.396 122.534L257.462 122.548Z" fill="#407BFF"/>
<path opacity="0.6" d="M257.462 122.548C257.462 122.548 262.374 165.312 266.084 179.017C270.485 195.316 297.813 217.243 297.813 217.243L303.365 212.525C303.365 212.525 283.542 188.708 280.176 180.107C272.989 161.787 279.141 134.487 273.396 122.534L257.462 122.548Z" fill="#FAFAFA"/>
<path d="M304.269 212.277L297.385 218.119L294.819 216.581L302.6 209.339L304.269 212.277Z" fill="#407BFF"/>
<path opacity="0.4" d="M304.269 212.277L297.385 218.119L294.819 216.581L302.6 209.339L304.269 212.277Z" fill="#FAFAFA"/>
<path d="M259.277 72.7961C259.359 73.2168 259.201 73.6031 258.925 73.6583C258.649 73.7135 258.359 73.41 258.276 72.9685C258.194 72.5271 258.352 72.1615 258.628 72.1063C258.904 72.0512 259.194 72.3684 259.277 72.7961Z" fill="#263238"/>
<path d="M254.517 73.7341C254.6 74.1549 254.441 74.5411 254.165 74.5963C253.89 74.6515 253.6 74.348 253.517 73.9066C253.434 73.4651 253.586 73.0996 253.862 73.0444C254.138 72.9892 254.421 73.3065 254.517 73.7341Z" fill="#263238"/>
<path d="M253.979 73.0651L252.903 72.9685C252.903 72.9685 253.579 73.6583 253.979 73.0651Z" fill="#263238"/>
<path d="M255.897 74.2101C255.71 75.2475 255.383 76.2547 254.924 77.2036C255.169 77.3162 255.435 77.3745 255.704 77.3745C255.973 77.3745 256.239 77.3162 256.483 77.2036L255.897 74.2101Z" fill="#DF5753"/>
<path d="M258.283 78.5624C258.25 78.5624 258.219 78.5493 258.196 78.526C258.172 78.5027 258.159 78.4712 258.159 78.4382C258.159 78.4053 258.172 78.3737 258.196 78.3504C258.219 78.3272 258.25 78.3141 258.283 78.3141C258.811 78.2219 259.31 78.0064 259.739 77.6852C260.168 77.364 260.515 76.9462 260.753 76.4655C260.759 76.4502 260.768 76.4362 260.78 76.4244C260.792 76.4126 260.806 76.4032 260.821 76.3968C260.836 76.3904 260.853 76.3871 260.87 76.387C260.886 76.387 260.903 76.3902 260.918 76.3966C260.934 76.4029 260.948 76.4122 260.959 76.424C260.971 76.4357 260.981 76.4497 260.987 76.4651C260.993 76.4804 260.997 76.4969 260.997 76.5136C260.997 76.5302 260.993 76.5467 260.987 76.5621C260.737 77.0841 260.366 77.5383 259.904 77.8864C259.441 78.2345 258.902 78.4664 258.332 78.5624H258.283Z" fill="#263238"/>
<path d="M253.828 66.5056C253.828 66.5056 258.318 73.3134 266.595 74.2101C266.595 74.2101 275.141 66.4504 269.885 61.0704C261.373 52.3657 251.22 63.4569 253.828 66.5056Z" fill="#263238"/>
<path d="M268.664 73.8583C268.653 74.3649 268.541 74.8643 268.335 75.3273C268.129 75.7903 267.833 76.2077 267.464 76.5552C266.471 77.4864 265.353 76.7483 265.105 75.4861C264.884 74.348 265.105 72.4995 266.381 72.0373C266.656 71.9448 266.95 71.9228 267.236 71.9733C267.522 72.0237 267.791 72.145 268.018 72.3261C268.245 72.5072 268.423 72.7423 268.536 73.01C268.649 73.2776 268.693 73.5693 268.664 73.8583Z" fill="#E58A7B"/>
<path d="M260.366 70.9751C260.303 70.9759 260.242 70.9538 260.194 70.9131C259.963 70.6953 259.684 70.5351 259.38 70.4452C259.075 70.3553 258.754 70.3384 258.442 70.3958C258.41 70.4051 258.376 70.4078 258.343 70.4038C258.31 70.3998 258.278 70.3891 258.249 70.3723C258.22 70.3556 258.194 70.3331 258.174 70.3063C258.154 70.2795 258.14 70.249 258.132 70.2164C258.115 70.1515 258.124 70.0825 258.158 70.0245C258.191 69.9664 258.246 69.9238 258.311 69.906C258.704 69.8254 259.111 69.8403 259.498 69.9495C259.884 70.0588 260.239 70.2591 260.532 70.5337C260.579 70.5815 260.606 70.6459 260.606 70.7131C260.606 70.7802 260.579 70.8446 260.532 70.8924C260.489 70.9403 260.43 70.9699 260.366 70.9751V70.9751Z" fill="#263238"/>
<path d="M251.855 71.9615C251.823 71.9686 251.79 71.9686 251.758 71.9615C251.727 71.9494 251.699 71.9311 251.675 71.9077C251.651 71.8843 251.632 71.8563 251.619 71.8254C251.606 71.7944 251.599 71.7612 251.6 71.7277C251.6 71.6942 251.607 71.6611 251.62 71.6304C251.766 71.2561 251.999 70.9223 252.3 70.657C252.601 70.3917 252.962 70.2027 253.352 70.106C253.384 70.0991 253.417 70.0988 253.45 70.1052C253.482 70.1116 253.513 70.1246 253.54 70.1433C253.567 70.1621 253.59 70.1862 253.607 70.2142C253.625 70.2422 253.636 70.2734 253.641 70.3061C253.648 70.3387 253.649 70.3724 253.642 70.4052C253.636 70.438 253.623 70.4692 253.604 70.4969C253.586 70.5246 253.562 70.5482 253.534 70.5664C253.506 70.5846 253.474 70.5969 253.441 70.6026C253.131 70.6823 252.844 70.8345 252.604 71.0468C252.364 71.259 252.179 71.5253 252.062 71.8235C252.042 71.8627 252.013 71.896 251.977 71.9203C251.94 71.9445 251.898 71.9587 251.855 71.9615Z" fill="#263238"/>
<path d="M284.866 116.795V116.181C284.866 115.354 284.749 114.56 284.666 113.76C284.248 110.662 283.589 107.602 282.694 104.607C281.827 101.641 280.796 98.7258 279.603 95.8751L274.52 97.9443C275.548 100.607 276.52 103.414 277.41 106.173C277.838 107.553 278.245 108.932 278.596 110.311C278.948 111.691 279.286 113.07 279.528 114.45L279.672 115.367C279.196 115.209 278.707 115.036 278.21 114.829C275.603 113.767 272.94 112.388 270.313 111.063L268.788 113.291C271.127 115.322 273.648 117.132 276.32 118.699C277.038 119.115 277.782 119.483 278.548 119.802C278.978 119.989 279.42 120.143 279.872 120.265C280.142 120.341 280.416 120.398 280.693 120.437C281.062 120.484 281.435 120.484 281.804 120.437C282.412 120.383 282.994 120.164 283.487 119.802C284.099 119.347 284.532 118.69 284.708 117.947C284.812 117.572 284.865 117.184 284.866 116.795V116.795ZM281.155 115.767H281.28C281.355 115.761 281.259 115.774 281.121 115.767H281.155Z" fill="#E58A7B"/>
<path d="M277.279 90.1709C279.452 90.8606 282.059 98.3099 282.059 98.3099L273.637 104.338C273.637 104.338 270.561 98.0961 271.478 95.2888C272.402 92.3643 274.782 89.419 277.279 90.1709Z" fill="#407BFF"/>
<path opacity="0.5" d="M277.279 90.1709C279.452 90.8606 282.059 98.3099 282.059 98.3099L273.637 104.338C273.637 104.338 270.561 98.0961 271.478 95.2888C272.402 92.3643 274.782 89.419 277.279 90.1709Z" fill="black"/>
<path d="M301.551 223.534C301.441 223.531 301.334 223.503 301.236 223.453C301.138 223.403 301.052 223.331 300.986 223.244C300.933 223.189 300.896 223.121 300.879 223.047C300.862 222.973 300.866 222.896 300.889 222.823C301.082 222.168 302.958 221.637 303.145 221.582C303.169 221.574 303.195 221.574 303.22 221.582C303.244 221.589 303.266 221.604 303.283 221.623C303.295 221.644 303.301 221.668 303.301 221.692C303.301 221.716 303.295 221.74 303.283 221.761C302.951 222.389 302.289 223.451 301.62 223.534H301.551ZM302.931 221.913C302.193 222.147 301.241 222.554 301.137 222.899C301.127 222.93 301.125 222.964 301.134 222.996C301.143 223.028 301.161 223.057 301.186 223.079C301.233 223.147 301.297 223.201 301.373 223.236C301.448 223.271 301.531 223.286 301.613 223.279C301.965 223.237 302.448 222.734 302.924 221.913H302.931Z" fill="#407BFF"/>
<path d="M302.338 221.934C301.786 221.991 301.233 221.835 300.792 221.499C300.729 221.421 300.694 221.324 300.694 221.223C300.694 221.123 300.729 221.025 300.792 220.947C300.847 220.869 300.918 220.802 301 220.752C301.082 220.702 301.173 220.67 301.268 220.658C302.027 220.568 303.2 221.561 303.248 221.609C303.266 221.623 303.279 221.641 303.287 221.662C303.294 221.683 303.295 221.705 303.289 221.727C303.286 221.749 303.277 221.77 303.262 221.787C303.248 221.804 303.228 221.817 303.207 221.823C302.924 221.902 302.631 221.94 302.338 221.934ZM301.399 220.899H301.317C301.256 220.906 301.197 220.926 301.144 220.958C301.092 220.991 301.047 221.034 301.013 221.085C300.924 221.216 300.958 221.292 301.013 221.34C301.241 221.637 302.289 221.747 302.931 221.637C302.501 221.262 301.98 221.008 301.42 220.899H301.399Z" fill="#407BFF"/>
<path d="M253.565 243.026C253.108 243.068 252.65 242.951 252.269 242.695C252.183 242.62 252.117 242.524 252.077 242.417C252.038 242.31 252.025 242.194 252.041 242.081C252.045 242.011 252.067 241.944 252.104 241.885C252.142 241.826 252.194 241.777 252.255 241.743C252.91 241.391 255.014 242.474 255.276 242.598C255.299 242.611 255.318 242.63 255.331 242.653C255.343 242.677 255.348 242.703 255.345 242.73C255.342 242.755 255.331 242.779 255.314 242.797C255.297 242.816 255.274 242.829 255.248 242.833C254.695 242.952 254.131 243.017 253.565 243.026V243.026ZM252.614 241.922C252.532 241.917 252.452 241.934 252.379 241.971C252.354 241.983 252.333 242.001 252.319 242.024C252.304 242.048 252.296 242.074 252.296 242.102C252.283 242.176 252.289 242.253 252.315 242.325C252.34 242.396 252.384 242.459 252.441 242.509C252.765 242.798 253.641 242.854 254.828 242.654C254.136 242.286 253.388 242.039 252.614 241.922V241.922Z" fill="#407BFF"/>
<path d="M255.207 242.84H255.152C254.517 242.55 253.262 241.405 253.359 240.771C253.359 240.626 253.483 240.446 253.834 240.412C253.958 240.398 254.084 240.411 254.203 240.449C254.322 240.487 254.431 240.55 254.524 240.633C255.214 241.191 255.324 242.626 255.324 242.702C255.328 242.723 255.325 242.745 255.317 242.764C255.308 242.784 255.294 242.801 255.276 242.812C255.257 242.829 255.232 242.838 255.207 242.84V242.84ZM253.938 240.674H253.862C253.628 240.674 253.614 240.784 253.607 240.819C253.552 241.178 254.4 242.088 255.048 242.481C255 241.872 254.759 241.295 254.359 240.833C254.244 240.737 254.101 240.681 253.952 240.674H253.938Z" fill="#407BFF"/>
<path d="M271.071 111.677L269.278 106.194L266.422 110.808C266.422 110.808 268.105 113.795 270.326 113.746L271.071 111.677Z" fill="#E58A7B"/>
<path d="M265.533 103.697L263.353 107.69L266.402 110.808L269.257 106.194L265.533 103.697Z" fill="#E58A7B"/>
<path d="M258.752 72.127L257.683 72.0305C257.683 72.0305 258.359 72.7202 258.752 72.127Z" fill="#263238"/>
<path d="M273.741 121.272L274.299 123.217C274.375 123.362 274.196 123.52 273.941 123.52H251.634C251.434 123.52 251.275 123.424 251.262 123.299L251.069 121.396C251.069 121.258 251.22 121.147 251.434 121.147H273.389C273.453 121.137 273.519 121.144 273.58 121.165C273.642 121.187 273.697 121.223 273.741 121.272V121.272Z" fill="#263238"/>
<path d="M270.795 123.727H271.382C271.499 123.727 271.589 123.665 271.582 123.596L271.306 121.072C271.306 120.996 271.195 120.941 271.078 120.941H270.492C270.375 120.941 270.285 120.996 270.292 121.072L270.568 123.596C270.575 123.665 270.678 123.727 270.795 123.727Z" fill="#407BFF"/>
<path opacity="0.6" d="M270.795 123.727H271.382C271.499 123.727 271.589 123.665 271.582 123.596L271.306 121.072C271.306 120.996 271.195 120.941 271.078 120.941H270.492C270.375 120.941 270.285 120.996 270.292 121.072L270.568 123.596C270.575 123.665 270.678 123.727 270.795 123.727Z" fill="#FAFAFA"/>
<path d="M253.283 123.727H253.869C253.986 123.727 254.076 123.665 254.069 123.596L253.793 121.072C253.793 120.996 253.683 120.941 253.565 120.941H252.979C252.862 120.941 252.772 120.996 252.779 121.072L253.055 123.596C253.062 123.665 253.138 123.727 253.283 123.727Z" fill="#407BFF"/>
<path opacity="0.6" d="M253.283 123.727H253.869C253.986 123.727 254.076 123.665 254.069 123.596L253.793 121.072C253.793 120.996 253.683 120.941 253.565 120.941H252.979C252.862 120.941 252.772 120.996 252.779 121.072L253.055 123.596C253.062 123.665 253.138 123.727 253.283 123.727Z" fill="#FAFAFA"/>
<path d="M262.036 123.727H262.629C262.746 123.727 262.836 123.665 262.822 123.596L262.546 121.072C262.546 120.996 262.436 120.941 262.318 120.941H261.732C261.615 120.941 261.525 120.996 261.532 121.072L261.808 123.596C261.827 123.639 261.859 123.676 261.9 123.699C261.941 123.723 261.989 123.733 262.036 123.727V123.727Z" fill="#407BFF"/>
<path opacity="0.6" d="M262.036 123.727H262.629C262.746 123.727 262.836 123.665 262.822 123.596L262.546 121.072C262.546 120.996 262.436 120.941 262.318 120.941H261.732C261.615 120.941 261.525 120.996 261.532 121.072L261.808 123.596C261.827 123.639 261.859 123.676 261.9 123.699C261.941 123.723 261.989 123.733 262.036 123.727V123.727Z" fill="#FAFAFA"/>
<path d="M192.854 249.165H238.481C239.545 249.177 240.6 248.967 241.578 248.548C242.556 248.128 243.436 247.509 244.161 246.73C244.886 245.95 245.44 245.028 245.787 244.022C246.134 243.016 246.268 241.948 246.178 240.888L235.266 84.8391C235.077 82.6077 234.067 80.5259 232.43 78.9969C230.794 77.4678 228.649 76.6002 226.41 76.5621H180.783C179.719 76.5497 178.664 76.7599 177.686 77.1793C176.707 77.5986 175.828 78.2178 175.103 78.9972C174.378 79.7766 173.824 80.6989 173.477 81.7049C173.129 82.711 172.996 83.7785 173.086 84.8391L183.997 240.895C184.188 243.125 185.199 245.205 186.835 246.733C188.471 248.26 190.616 249.127 192.854 249.165Z" fill="#407BFF"/>
<path opacity="0.2" d="M192.854 249.165H238.481C239.545 249.177 240.6 248.967 241.578 248.548C242.556 248.128 243.436 247.509 244.161 246.73C244.886 245.95 245.44 245.028 245.787 244.022C246.134 243.016 246.268 241.948 246.178 240.888L235.266 84.8391C235.077 82.6077 234.067 80.5259 232.43 78.9969C230.794 77.4678 228.649 76.6002 226.41 76.5621H180.783C179.719 76.5497 178.664 76.7599 177.686 77.1793C176.707 77.5986 175.828 78.2178 175.103 78.9972C174.378 79.7766 173.824 80.6989 173.477 81.7049C173.129 82.711 172.996 83.7785 173.086 84.8391L183.997 240.895C184.188 243.125 185.199 245.205 186.835 246.733C188.471 248.26 190.616 249.127 192.854 249.165Z" fill="black"/>
<path d="M168.752 132.957L168.064 133.006L168.824 143.877L169.512 143.829L168.752 132.957Z" fill="#407BFF"/>
<path opacity="0.5" d="M168.752 132.957L168.064 133.006L168.824 143.877L169.512 143.829L168.752 132.957Z" fill="black"/>
<path d="M186.881 249.165H232.5C233.565 249.177 234.62 248.967 235.598 248.548C236.576 248.128 237.456 247.509 238.181 246.73C238.906 245.95 239.46 245.028 239.807 244.022C240.154 243.016 240.288 241.948 240.198 240.888L229.286 84.8391C229.097 82.6077 228.086 80.5259 226.45 78.9969C224.814 77.4678 222.669 76.6002 220.43 76.5621H174.81C173.746 76.5497 172.691 76.7599 171.712 77.1793C170.734 77.5986 169.854 78.2178 169.13 78.9972C168.405 79.7766 167.851 80.6989 167.503 81.7049C167.156 82.711 167.023 83.7785 167.112 84.8391L178.024 240.888C178.213 243.119 179.224 245.201 180.86 246.73C182.496 248.259 184.641 249.127 186.881 249.165V249.165Z" fill="#407BFF"/>
<path opacity="0.5" d="M186.881 249.165H232.5C233.565 249.177 234.62 248.967 235.598 248.548C236.576 248.128 237.456 247.509 238.181 246.73C238.906 245.95 239.46 245.028 239.807 244.022C240.154 243.016 240.288 241.948 240.198 240.888L229.286 84.8391C229.097 82.6077 228.086 80.5259 226.45 78.9969C224.814 77.4678 222.669 76.6002 220.43 76.5621H174.81C173.746 76.5497 172.691 76.7599 171.712 77.1793C170.734 77.5986 169.854 78.2178 169.13 78.9972C168.405 79.7766 167.851 80.6989 167.503 81.7049C167.156 82.711 167.023 83.7785 167.112 84.8391L178.024 240.888C178.213 243.119 179.224 245.201 180.86 246.73C182.496 248.259 184.641 249.127 186.881 249.165V249.165Z" fill="black"/>
<path d="M195.351 126.265H203.793C203.992 126.274 204.19 126.239 204.374 126.163C204.558 126.088 204.723 125.973 204.859 125.828C204.994 125.682 205.097 125.509 205.16 125.321C205.222 125.132 205.243 124.932 205.221 124.734L203.2 95.8337C203.166 95.42 202.979 95.034 202.675 94.7509C202.372 94.4677 201.973 94.3079 201.558 94.3024H193.13C192.932 94.2953 192.734 94.3309 192.551 94.4068C192.368 94.4828 192.203 94.5974 192.069 94.7427C191.934 94.888 191.832 95.0607 191.77 95.2489C191.708 95.4372 191.687 95.6366 191.709 95.8337L193.73 124.734C193.764 125.144 193.948 125.527 194.247 125.81C194.546 126.093 194.939 126.255 195.351 126.265Z" fill="#407BFF"/>
<path opacity="0.2" d="M195.351 126.265H203.793C203.992 126.274 204.19 126.239 204.374 126.163C204.558 126.088 204.723 125.973 204.859 125.828C204.994 125.682 205.097 125.509 205.16 125.321C205.222 125.132 205.243 124.932 205.221 124.734L203.2 95.8337C203.166 95.42 202.979 95.034 202.675 94.7509C202.372 94.4677 201.973 94.3079 201.558 94.3024H193.13C192.932 94.2953 192.734 94.3309 192.551 94.4068C192.368 94.4828 192.203 94.5974 192.069 94.7427C191.934 94.888 191.832 95.0607 191.77 95.2489C191.708 95.4372 191.687 95.6366 191.709 95.8337L193.73 124.734C193.764 125.144 193.948 125.527 194.247 125.81C194.546 126.093 194.939 126.255 195.351 126.265Z" fill="black"/>
<path d="M143.64 249.165H98.0133C96.949 249.177 95.8939 248.967 94.9157 248.548C93.9375 248.128 93.0577 247.509 92.3329 246.73C91.6081 245.95 91.0542 245.028 90.7068 244.022C90.3594 243.016 90.2262 241.948 90.3157 240.888L101.227 84.839C101.418 82.6082 102.429 80.5273 104.065 78.9986C105.701 77.4698 107.845 76.6017 110.084 76.562H155.711C156.775 76.5496 157.83 76.7598 158.808 77.1792C159.787 77.5985 160.666 78.2178 161.391 78.9972C162.116 79.7765 162.67 80.6988 163.017 81.7049C163.365 82.7109 163.498 83.7785 163.408 84.839L152.497 240.888C152.307 243.119 151.297 245.201 149.661 246.73C148.025 248.259 145.879 249.127 143.64 249.165Z" fill="#407BFF"/>
<path opacity="0.5" d="M143.64 249.165H98.0133C96.949 249.177 95.8939 248.967 94.9157 248.548C93.9375 248.128 93.0577 247.509 92.3329 246.73C91.6081 245.95 91.0542 245.028 90.7068 244.022C90.3594 243.016 90.2262 241.948 90.3157 240.888L101.227 84.839C101.418 82.6082 102.429 80.5273 104.065 78.9986C105.701 77.4698 107.845 76.6017 110.084 76.562H155.711C156.775 76.5496 157.83 76.7598 158.808 77.1792C159.787 77.5985 160.666 78.2178 161.391 78.9972C162.116 79.7765 162.67 80.6988 163.017 81.7049C163.365 82.7109 163.498 83.7785 163.408 84.839L152.497 240.888C152.307 243.119 151.297 245.201 149.661 246.73C148.025 248.259 145.879 249.127 143.64 249.165Z" fill="black"/>
<path d="M124.451 74.1411H121.879V74.8308H124.451V74.1411Z" fill="#407BFF"/>
<path opacity="0.3" d="M124.451 74.1411H121.879V74.8308H124.451V74.1411Z" fill="black"/>
<path d="M117.264 74.1411H109.173V74.8308H117.264V74.1411Z" fill="#407BFF"/>
<path opacity="0.3" d="M117.264 74.1411H109.173V74.8308H117.264V74.1411Z" fill="black"/>
<path d="M137.66 249.165H92.0401C90.9758 249.177 89.9207 248.967 88.9425 248.548C87.9642 248.128 87.0845 247.509 86.3597 246.73C85.6349 245.95 85.081 245.028 84.7336 244.022C84.3862 243.016 84.253 241.948 84.3425 240.888L95.2543 84.839C95.4436 82.6076 96.4541 80.5259 98.0902 78.9968C99.7263 77.4677 101.872 76.6002 104.111 76.562H149.731C150.795 76.5496 151.85 76.7598 152.828 77.1792C153.806 77.5985 154.686 78.2178 155.411 78.9972C156.136 79.7765 156.69 80.6988 157.037 81.7049C157.385 82.7109 157.518 83.7785 157.428 84.839L146.516 240.888C146.327 243.119 145.317 245.201 143.681 246.73C142.044 248.259 139.899 249.127 137.66 249.165V249.165Z" fill="#407BFF"/>
<path opacity="0.3" d="M137.66 249.165H92.0401C90.9758 249.177 89.9207 248.967 88.9425 248.548C87.9642 248.128 87.0845 247.509 86.3597 246.73C85.6349 245.95 85.081 245.028 84.7336 244.022C84.3862 243.016 84.253 241.948 84.3425 240.888L95.2543 84.839C95.4436 82.6076 96.4541 80.5259 98.0902 78.9968C99.7263 77.4677 101.872 76.6002 104.111 76.562H149.731C150.795 76.5496 151.85 76.7598 152.828 77.1792C153.806 77.5985 154.686 78.2178 155.411 78.9972C156.136 79.7765 156.69 80.6988 157.037 81.7049C157.385 82.7109 157.518 83.7785 157.428 84.839L146.516 240.888C146.327 243.119 145.317 245.201 143.681 246.73C142.044 248.259 139.899 249.127 137.66 249.165V249.165Z" fill="black"/>
<path d="M144.502 240.184H84.4321C84.2881 240.184 84.1458 240.154 84.0139 240.096C83.8819 240.038 83.7632 239.954 83.665 239.849C83.5668 239.743 83.4911 239.619 83.4428 239.483C83.3944 239.348 83.3743 239.204 83.3837 239.06L94.0128 87.0463C94.032 86.7797 94.1516 86.5304 94.3474 86.3486C94.5433 86.1669 94.8008 86.0661 95.0681 86.0668H155.131C155.276 86.0665 155.419 86.0959 155.552 86.1532C155.685 86.2105 155.804 86.2945 155.903 86.3999C156.002 86.5053 156.078 86.63 156.127 86.7661C156.176 86.9022 156.196 87.0469 156.187 87.1911L145.537 239.205C145.52 239.468 145.403 239.716 145.212 239.897C145.02 240.079 144.766 240.181 144.502 240.184V240.184Z" fill="#407BFF"/>
<path opacity="0.9" d="M144.502 240.184H84.4321C84.2881 240.184 84.1458 240.154 84.0139 240.096C83.8819 240.038 83.7632 239.954 83.665 239.849C83.5668 239.743 83.4911 239.619 83.4428 239.483C83.3944 239.348 83.3743 239.204 83.3837 239.06L94.0128 87.0463C94.032 86.7797 94.1516 86.5304 94.3474 86.3486C94.5433 86.1669 94.8008 86.0661 95.0681 86.0668H155.131C155.276 86.0665 155.419 86.0959 155.552 86.1532C155.685 86.2105 155.804 86.2945 155.903 86.3999C156.002 86.5053 156.078 86.63 156.127 86.7661C156.176 86.9022 156.196 87.0469 156.187 87.1911L145.537 239.205C145.52 239.468 145.403 239.716 145.212 239.897C145.02 240.079 144.766 240.181 144.502 240.184V240.184Z" fill="#FAFAFA"/>
<path d="M143.04 101.628H104.049C102.989 101.646 101.973 102.057 101.199 102.78C100.424 103.504 99.9453 104.489 99.855 105.545L95.7923 163.622C95.7499 164.125 95.8132 164.63 95.9779 165.107C96.1427 165.583 96.4053 166.02 96.7489 166.389C97.0926 166.758 97.5096 167.051 97.9733 167.249C98.4369 167.448 98.9369 167.547 99.4411 167.54H102.145L100.765 171.796C103.956 171.508 106.905 169.98 108.98 167.54H138.433C139.492 167.522 140.508 167.111 141.283 166.387C142.057 165.664 142.536 164.678 142.626 163.622L146.689 105.545C146.73 105.043 146.666 104.538 146.501 104.062C146.336 103.586 146.073 103.149 145.73 102.781C145.386 102.412 144.97 102.119 144.507 101.92C144.043 101.722 143.544 101.622 143.04 101.628V101.628Z" fill="#407BFF"/>
<path opacity="0.6" d="M143.04 101.628H104.049C102.989 101.646 101.973 102.057 101.199 102.78C100.424 103.504 99.9453 104.489 99.855 105.545L95.7923 163.622C95.7499 164.125 95.8132 164.63 95.9779 165.107C96.1427 165.583 96.4053 166.02 96.7489 166.389C97.0926 166.758 97.5096 167.051 97.9733 167.249C98.4369 167.448 98.9369 167.547 99.4411 167.54H102.145L100.765 171.796C103.956 171.508 106.905 169.98 108.98 167.54H138.433C139.492 167.522 140.508 167.111 141.283 166.387C142.057 165.664 142.536 164.678 142.626 163.622L146.689 105.545C146.73 105.043 146.666 104.538 146.501 104.062C146.336 103.586 146.073 103.149 145.73 102.781C145.386 102.412 144.97 102.119 144.507 101.92C144.043 101.722 143.544 101.622 143.04 101.628V101.628Z" fill="#FAFAFA"/>
<path d="M98.6341 179.231H137.626C138.13 179.225 138.63 179.324 139.093 179.522C139.557 179.72 139.974 180.013 140.318 180.382C140.661 180.751 140.924 181.188 141.089 181.664C141.254 182.141 141.317 182.646 141.274 183.149L139.529 208.097C139.439 209.153 138.96 210.139 138.186 210.862C137.411 211.586 136.396 211.997 135.336 212.015H132.625L133.384 216.271C131.888 216.146 130.437 215.701 129.128 214.967C127.819 214.233 126.683 213.226 125.796 212.015H96.3303C95.8262 212.021 95.3262 211.923 94.8625 211.724C94.3989 211.526 93.9818 211.233 93.6382 210.864C93.2945 210.495 93.0319 210.058 92.8671 209.582C92.7024 209.105 92.6392 208.6 92.6816 208.097L94.4266 183.149C94.5172 182.09 94.9979 181.103 95.7754 180.379C96.553 179.655 97.5718 179.246 98.6341 179.231V179.231Z" fill="#407BFF"/>
<path opacity="0.6" d="M98.6341 179.231H137.626C138.13 179.225 138.63 179.324 139.093 179.522C139.557 179.72 139.974 180.013 140.318 180.382C140.661 180.751 140.924 181.188 141.089 181.664C141.254 182.141 141.317 182.646 141.274 183.149L139.529 208.097C139.439 209.153 138.96 210.139 138.186 210.862C137.411 211.586 136.396 211.997 135.336 212.015H132.625L133.384 216.271C131.888 216.146 130.437 215.701 129.128 214.967C127.819 214.233 126.683 213.226 125.796 212.015H96.3303C95.8262 212.021 95.3262 211.923 94.8625 211.724C94.3989 211.526 93.9818 211.233 93.6382 210.864C93.2945 210.495 93.0319 210.058 92.8671 209.582C92.7024 209.105 92.6392 208.6 92.6816 208.097L94.4266 183.149C94.5172 182.09 94.9979 181.103 95.7754 180.379C96.553 179.655 97.5718 179.246 98.6341 179.231V179.231Z" fill="#FAFAFA"/>
<path d="M133.846 80.9282C133.818 81.2779 133.662 81.605 133.407 81.8459C133.152 82.0868 132.817 82.2243 132.466 82.2318C132.298 82.2344 132.132 82.2017 131.977 82.1359C131.823 82.0701 131.684 81.9726 131.57 81.8497C131.455 81.7269 131.368 81.5814 131.313 81.4226C131.259 81.2639 131.238 81.0955 131.252 80.9282C131.283 80.5796 131.44 80.2543 131.694 80.014C131.948 79.7737 132.282 79.6351 132.632 79.6246C132.8 79.622 132.966 79.6547 133.121 79.7205C133.275 79.7864 133.414 79.8839 133.528 80.0067C133.643 80.1296 133.73 80.2751 133.785 80.4338C133.839 80.5925 133.86 80.761 133.846 80.9282V80.9282Z" fill="#407BFF"/>
<path opacity="0.5" d="M133.846 80.9282C133.818 81.2779 133.662 81.605 133.407 81.8459C133.152 82.0868 132.817 82.2243 132.466 82.2318C132.298 82.2344 132.132 82.2017 131.977 82.1359C131.823 82.0701 131.684 81.9726 131.57 81.8497C131.455 81.7269 131.368 81.5814 131.313 81.4226C131.259 81.2639 131.238 81.0955 131.252 80.9282C131.283 80.5796 131.44 80.2543 131.694 80.014C131.948 79.7737 132.282 79.6351 132.632 79.6246C132.8 79.622 132.966 79.6547 133.121 79.7205C133.275 79.7864 133.414 79.8839 133.528 80.0067C133.643 80.1296 133.73 80.2751 133.785 80.4338C133.839 80.5925 133.86 80.761 133.846 80.9282V80.9282Z" fill="black"/>
<path d="M127.128 82.2318H118.03C117.862 82.2333 117.696 82.1999 117.542 82.1337C117.388 82.0675 117.25 81.97 117.136 81.8474C117.021 81.7248 116.934 81.5797 116.879 81.4215C116.824 81.2632 116.802 81.0952 116.816 80.9282C116.845 80.5791 117.001 80.2529 117.256 80.0123C117.511 79.7716 117.845 79.6336 118.195 79.6246H127.293C127.461 79.6231 127.627 79.6565 127.781 79.7227C127.935 79.7888 128.073 79.8863 128.187 80.009C128.301 80.1316 128.389 80.2767 128.444 80.4349C128.499 80.5932 128.52 80.7612 128.507 80.9282V80.9282C128.478 81.2773 128.322 81.6035 128.067 81.8441C127.812 82.0847 127.478 82.2228 127.128 82.2318Z" fill="#407BFF"/>
<path opacity="0.5" d="M127.128 82.2318H118.03C117.862 82.2333 117.696 82.1999 117.542 82.1337C117.388 82.0675 117.25 81.97 117.136 81.8474C117.021 81.7248 116.934 81.5797 116.879 81.4215C116.824 81.2632 116.802 81.0952 116.816 80.9282C116.845 80.5791 117.001 80.2529 117.256 80.0123C117.511 79.7716 117.845 79.6336 118.195 79.6246H127.293C127.461 79.6231 127.627 79.6565 127.781 79.7227C127.935 79.7888 128.073 79.8863 128.187 80.009C128.301 80.1316 128.389 80.2767 128.444 80.4349C128.499 80.5932 128.52 80.7612 128.507 80.9282V80.9282C128.478 81.2773 128.322 81.6035 128.067 81.8441C127.812 82.0847 127.478 82.2228 127.128 82.2318Z" fill="black"/>
<path d="M78.5555 112.201L79.6384 114.319C80.0177 115.009 80.404 115.761 80.804 116.471C81.6041 117.899 82.418 119.313 83.2733 120.685C84.9058 123.389 86.7755 125.942 88.8603 128.314C89.3776 128.831 89.9363 129.452 90.295 129.735C90.7962 130.139 91.3316 130.499 91.8952 130.811C93.2383 131.519 94.6361 132.119 96.0751 132.604C99.1757 133.634 102.333 134.483 105.532 135.149L105.311 138.95C101.719 139.16 98.1145 138.95 94.5714 138.322C92.6838 137.995 90.8347 137.475 89.0534 136.77C88.0622 136.375 87.1146 135.878 86.2255 135.287C85.7653 134.981 85.3273 134.642 84.9149 134.273L83.8251 133.315C81.1932 130.761 78.8564 127.92 76.8587 124.845C75.8585 123.348 74.9136 121.83 74.0514 120.271C73.6169 119.492 73.1892 118.706 72.7823 117.913C72.3753 117.119 71.989 116.347 71.5821 115.45L78.5555 112.201Z" fill="#E58A7B"/>
<path d="M104.152 135.149L107.221 132.984L108.842 139.246C108.842 139.246 106.139 140.198 104.104 138.826L104.152 135.149Z" fill="#E58A7B"/>
<path d="M111.456 131.563L112.546 136.805L108.835 139.246L107.215 132.984L111.456 131.563Z" fill="#E58A7B"/>
<path d="M130.956 126.01L130.121 125.858C129.249 125.708 128.354 125.762 127.507 126.017L125.1 126.748C126.328 124.209 126.789 121.365 126.424 118.568C126.134 116.457 124.548 116.94 124.548 116.94C124.548 116.94 122.223 125.714 117.395 129.08L115.878 130.135L118.044 145.592L119.83 145.427C120.52 145.427 124.444 145.427 126.976 145.427C127.72 145.395 128.447 145.196 129.104 144.845C129.76 144.494 130.33 144 130.769 143.399C132.059 141.692 132.798 139.632 132.887 137.494L133.342 130.3C133.453 128.176 132.432 126.265 130.956 126.01Z" fill="#407BFF"/>
<path opacity="0.9" d="M130.956 126.01L130.121 125.858C129.249 125.708 128.354 125.762 127.507 126.017L125.1 126.748C126.328 124.209 126.789 121.365 126.424 118.568C126.134 116.457 124.548 116.94 124.548 116.94C124.548 116.94 122.223 125.714 117.395 129.08L115.878 130.135L118.044 145.592L119.83 145.427C120.52 145.427 124.444 145.427 126.976 145.427C127.72 145.395 128.447 145.196 129.104 144.845C129.76 144.494 130.33 144 130.769 143.399C132.059 141.692 132.798 139.632 132.887 137.494L133.342 130.3C133.453 128.176 132.432 126.265 130.956 126.01Z" fill="#FAFAFA"/>
<path d="M111.339 149.179L118.14 147.696C118.671 147.586 119.044 146.854 118.961 146.075L117.188 128.369C117.106 127.59 116.609 127.052 116.078 127.162L109.277 128.645C108.746 128.755 108.373 129.487 108.456 130.266L110.229 147.972C110.312 148.751 110.808 149.289 111.339 149.179Z" fill="#407BFF"/>
<path d="M98.234 90.8123C98.1512 91.2123 98.2961 91.5779 98.5582 91.6331C98.8203 91.6883 99.1031 91.4124 99.1858 91.0123C99.2686 90.6123 99.1238 90.2398 98.8617 90.1846C98.5995 90.1294 98.3167 90.4122 98.234 90.8123Z" fill="#263238"/>
<path d="M98.2616 91.571C98.4836 92.8931 98.885 94.1787 99.4549 95.3922C99.1422 95.5315 98.8026 95.6 98.4604 95.5928C98.1182 95.5857 97.7818 95.503 97.4753 95.3508L98.2616 91.571Z" fill="#DF5753"/>
<path d="M99.3238 88.3637C99.277 88.3629 99.2315 88.3485 99.1927 88.3223C98.928 88.179 98.633 88.1006 98.3321 88.0934C98.0311 88.0862 97.7328 88.1505 97.4615 88.2809C97.4038 88.3069 97.3382 88.3091 97.2789 88.2872C97.2195 88.2652 97.1712 88.2209 97.1442 88.1637C97.1306 88.1348 97.123 88.1035 97.122 88.0716C97.1209 88.0398 97.1263 88.008 97.138 87.9783C97.1496 87.9486 97.1671 87.9216 97.1895 87.8989C97.212 87.8762 97.2388 87.8584 97.2683 87.8464C97.6121 87.6826 97.9903 87.6041 98.3709 87.6173C98.7514 87.6305 99.1232 87.7351 99.4548 87.9223C99.4816 87.939 99.5047 87.961 99.5227 87.987C99.5408 88.0129 99.5534 88.0422 99.5598 88.0731C99.5663 88.104 99.5664 88.1359 99.5602 88.1669C99.554 88.1979 99.5416 88.2273 99.5238 88.2533C99.5026 88.2873 99.4732 88.3152 99.4381 88.3345C99.4031 88.3538 99.3638 88.3639 99.3238 88.3637V88.3637Z" fill="#263238"/>
<path d="M84.039 92.0952C84.7287 95.7992 85.4874 102.593 82.894 105.062C82.894 105.062 83.9079 108.829 90.7985 108.829C98.3857 108.829 94.4128 105.062 94.4128 105.062C90.2743 104.076 90.3915 101.014 91.1089 98.165L84.039 92.0952Z" fill="#E58A7B"/>
<path d="M81.8456 106.125C81.349 104.911 81.4317 102.676 81.7973 102.641C83.232 102.545 90.8882 102.524 93.4196 103.497C93.7543 103.602 94.0648 103.773 94.3329 104C94.6009 104.227 94.8213 104.504 94.9811 104.817C95.1409 105.13 95.237 105.471 95.2638 105.821C95.2905 106.171 95.2474 106.523 95.137 106.856L81.8456 106.125Z" fill="#407BFF"/>
<path d="M64.9261 244.861C64.4808 244.858 64.037 244.81 63.6017 244.716C63.5794 244.712 63.5588 244.701 63.5428 244.685C63.5267 244.669 63.516 244.649 63.5121 244.626C63.509 244.603 63.5118 244.58 63.5202 244.558C63.5287 244.536 63.5425 244.517 63.5604 244.502C63.6224 244.461 65.0226 243.509 65.7607 243.674C65.8404 243.692 65.9155 243.726 65.9809 243.775C66.0464 243.823 66.1006 243.886 66.14 243.957C66.2001 244.041 66.2324 244.141 66.2324 244.243C66.2324 244.346 66.2001 244.446 66.14 244.53C65.97 244.663 65.775 244.761 65.5665 244.818C65.358 244.875 65.1403 244.889 64.9261 244.861V244.861ZM63.9397 244.543C64.6984 244.668 65.7331 244.668 65.9538 244.378C65.9538 244.378 66.0366 244.268 65.9538 244.074C65.9314 244.032 65.9001 243.996 65.8619 243.967C65.8238 243.938 65.7798 243.919 65.7331 243.909C65.084 243.941 64.4594 244.167 63.9397 244.557V244.543Z" fill="#407BFF"/>
<path d="M63.6293 244.737H63.5672C63.5481 244.726 63.5326 244.709 63.5228 244.69C63.5129 244.67 63.5092 244.648 63.512 244.626C63.512 244.564 63.6362 243.102 64.2018 242.619C64.2734 242.56 64.3561 242.517 64.445 242.491C64.5339 242.464 64.6271 242.457 64.7191 242.467C64.8091 242.469 64.8959 242.501 64.9649 242.559C65.034 242.617 65.0811 242.696 65.0985 242.785C65.2019 243.35 64.188 244.454 63.6707 244.743L63.6293 244.737ZM64.6501 242.667C64.551 242.668 64.4555 242.705 64.3811 242.771C64.0227 243.225 63.8132 243.779 63.781 244.357C64.2983 243.964 64.9467 243.129 64.8846 242.791C64.8846 242.791 64.8846 242.688 64.7053 242.667H64.6501Z" fill="#407BFF"/>
<path d="M57.7803 244.613H62.8499L67.5195 232.88H62.4568L57.7803 244.613Z" fill="#E58A7B"/>
<path d="M63.2499 244.026H57.5595C57.458 244.027 57.3596 244.062 57.2807 244.126C57.2018 244.19 57.1469 244.279 57.125 244.378L56.1248 248.882C56.102 248.992 56.1042 249.105 56.1312 249.214C56.1583 249.322 56.2095 249.424 56.2811 249.51C56.3527 249.596 56.4428 249.665 56.5447 249.712C56.6467 249.758 56.7578 249.781 56.8698 249.779C58.8562 249.744 59.8219 249.627 62.3257 249.627C63.8638 249.627 67.0367 249.792 69.168 249.792C71.2993 249.792 71.5683 247.723 70.6992 247.496C66.7953 246.64 65.3261 245.461 64.0776 244.343C63.8509 244.138 63.5557 244.025 63.2499 244.026V244.026Z" fill="#263238"/>
<path d="M104.504 109.994C106.014 112.753 107.504 115.581 108.973 118.382L113.374 126.79L114.478 128.859C114.711 129.36 114.988 129.84 115.305 130.294C116.076 131.222 117.011 132.001 118.064 132.59C120.613 134.045 123.321 135.202 126.134 136.039L125.707 139.819C124.841 139.837 123.976 139.81 123.113 139.736C122.256 139.682 121.402 139.583 120.554 139.44C118.801 139.169 117.082 138.707 115.429 138.06C113.547 137.353 111.826 136.277 110.367 134.894C109.641 134.143 109.004 133.309 108.47 132.411L107.173 130.342C105.476 127.583 103.842 124.81 102.269 122.023C100.703 119.216 99.1858 116.402 97.7305 113.526L104.504 109.994Z" fill="#E58A7B"/>
<path d="M70.0371 109.263C67.9678 113.684 74.5825 127.645 74.5825 127.645L85.8806 122.403C84.6476 118.442 83.1118 114.582 81.2869 110.856C78.3347 105 72.1339 104.745 70.0371 109.263Z" fill="#407BFF"/>
<path opacity="0.8" d="M70.0371 109.263C67.9678 113.684 74.5825 127.645 74.5825 127.645L85.8806 122.403C84.6476 118.442 83.1118 114.582 81.2869 110.856C78.3347 105 72.1339 104.745 70.0371 109.263Z" fill="#FAFAFA"/>
<path d="M76.1 110.167L73.5479 125.307C74.1549 126.734 74.5825 127.645 74.5825 127.645L85.8806 122.403C85.8806 122.403 80.7765 113.581 76.1 110.167Z" fill="#407BFF"/>
<path opacity="0.7" d="M76.1 110.167L73.5479 125.307C74.1549 126.734 74.5825 127.645 74.5825 127.645L85.8806 122.403C85.8806 122.403 80.7765 113.581 76.1 110.167Z" fill="#FAFAFA"/>
<path d="M102.207 106.47C102.207 106.47 107.601 112.567 102.51 150.269H75.4102C75.2171 146.13 77.8312 125.817 73.8238 106.207C76.8193 105.631 79.8491 105.248 82.894 105.063C86.7304 104.842 90.5764 104.842 94.4128 105.063C97.043 105.331 99.6487 105.802 102.207 106.47Z" fill="#407BFF"/>
<path opacity="0.8" d="M102.207 106.47C102.207 106.47 107.601 112.567 102.51 150.269H75.4102C75.2171 146.13 77.8312 125.817 73.8238 106.207C76.8193 105.631 79.8491 105.248 82.894 105.063C86.7304 104.842 90.5764 104.842 94.4128 105.063C97.043 105.331 99.6487 105.802 102.207 106.47Z" fill="#FAFAFA"/>
<path d="M104.393 115.443L100.207 125.789L104.393 131.88C104.807 126.409 104.807 120.914 104.393 115.443V115.443Z" fill="#407BFF"/>
<path opacity="0.7" d="M104.393 115.443L100.207 125.789L104.393 131.88C104.807 126.409 104.807 120.914 104.393 115.443V115.443Z" fill="#FAFAFA"/>
<path d="M95.613 109.815C93.9438 114.367 100.648 128.176 100.648 128.176L112.788 122.058C111.233 117.919 109.239 113.958 106.842 110.242C103.207 104.931 97.4477 104.842 95.613 109.815Z" fill="#407BFF"/>
<path opacity="0.8" d="M95.613 109.815C93.9438 114.367 100.648 128.176 100.648 128.176L112.788 122.058C111.233 117.919 109.239 113.958 106.842 110.242C103.207 104.931 97.4477 104.842 95.613 109.815Z" fill="#FAFAFA"/>
<path d="M125.127 136.218L130.093 134.232L131.473 140.219C131.473 140.219 127.528 141.647 124.658 139.571L125.127 136.218Z" fill="#E58A7B"/>
<path d="M135.57 134.294L134.804 139.646L131.466 140.219L130.094 134.232L135.57 134.294Z" fill="#E58A7B"/>
<path d="M62.4498 232.887H67.5195L64.1604 241.315L59.4701 240.364L62.4498 232.887Z" fill="#CF6F64"/>
<path d="M85.0667 87.1842C84.3769 92.1573 83.6872 95.0336 85.6254 98.0754C88.5706 102.648 95.1025 101.662 97.2959 96.9994C99.2755 92.8057 100.124 85.3702 95.7233 82.4112C94.7529 81.764 93.6342 81.3735 92.4718 81.2761C91.3094 81.1788 90.1413 81.3778 89.0768 81.8547C88.0123 82.3315 87.086 83.0704 86.3847 84.0025C85.6834 84.9346 85.2299 86.0293 85.0667 87.1842V87.1842Z" fill="#E58A7B"/>
<path d="M104.187 78.8245C99.8963 74.8584 103.29 73.8514 103.29 73.8514C103.29 73.8514 98.5858 71.9063 100.448 76.0723C103.048 81.88 95.7647 80.0936 92.2746 76.0723C90.1225 73.5893 84.4597 76.1344 84.7356 78.5554C85.0115 80.9765 76.1137 79.1003 80.1419 84.3838C80.2178 89.9018 82.3629 95.2681 85.2115 96.7234C90.095 99.2134 93.7575 92.247 95.1232 86.6669C102.49 90.2053 108.629 82.9285 104.187 78.8245Z" fill="#263238"/>
<path d="M91.3986 89.9915C91.4263 91.2467 91.8648 92.4582 92.647 93.4402C93.6886 94.7094 94.8749 94.0127 95.1508 92.5435C95.3991 91.2192 95.1508 88.9638 93.8403 88.2257C92.5298 87.4877 91.3917 88.4878 91.3986 89.9915Z" fill="#E58A7B"/>
<path d="M80.1902 79.2176C82.4038 79.1335 84.5751 79.8401 86.3152 81.211C86.3152 81.211 85.0667 75.8723 80.1902 79.2176Z" fill="#263238"/>
<path d="M90.6399 150.269C90.6399 150.269 91.6538 170.796 95.3992 188.895C96.5924 194.626 95.813 200.765 92.4539 205.559C82.5836 219.637 66.9332 238.384 66.9332 238.384L58.7321 237.467C58.7321 237.467 72.0098 212.85 78.8107 200.62C80.3557 197.861 81.7214 195.337 80.5558 192.343C69.2922 163.753 75.3827 150.269 75.3827 150.269H90.6399Z" fill="#407BFF"/>
<path opacity="0.3" d="M90.6399 150.269C90.6399 150.269 91.6538 170.796 95.3992 188.895C96.5924 194.626 95.813 200.765 92.4539 205.559C82.5836 219.637 66.9332 238.384 66.9332 238.384L58.7321 237.467C58.7321 237.467 72.0098 212.85 78.8107 200.62C80.3557 197.861 81.7214 195.337 80.5558 192.343C69.2922 163.753 75.3827 150.269 75.3827 150.269H90.6399Z" fill="black"/>
<path d="M92.1642 168.009L84.3149 158.642C84.0183 162.843 86.5566 178.555 95.2612 188.212C93.8748 181.404 92.8746 174.224 92.1642 168.009Z" fill="#407BFF"/>
<path opacity="0.4" d="M92.1642 168.009L84.3149 158.642C84.0183 162.843 86.5566 178.555 95.2612 188.212C93.8748 181.404 92.8746 174.224 92.1642 168.009Z" fill="black"/>
<path d="M69.2439 237.136L67.6368 240.46L57.7527 237.922L58.539 234.839L69.2439 237.136Z" fill="#407BFF"/>
<path opacity="0.1" d="M69.2439 237.136L67.6368 240.46L57.7527 237.922L58.539 234.839L69.2439 237.136Z" fill="black"/>
<path d="M98.6961 244.613H103.759L105.242 232.88H100.179L98.6961 244.613Z" fill="#E58A7B"/>
<path d="M105.98 244.861C105.457 244.861 104.935 244.812 104.421 244.716C104.397 244.712 104.375 244.701 104.357 244.683C104.34 244.666 104.328 244.644 104.325 244.619C104.32 244.595 104.324 244.569 104.335 244.547C104.346 244.525 104.364 244.507 104.387 244.495C104.462 244.454 106.228 243.447 107.077 243.674C107.156 243.693 107.23 243.728 107.296 243.776C107.361 243.825 107.416 243.887 107.456 243.957C107.51 244.034 107.539 244.126 107.539 244.219C107.539 244.313 107.51 244.405 107.456 244.481C107.256 244.785 106.628 244.861 105.98 244.861ZM104.807 244.544C105.759 244.675 107.042 244.654 107.27 244.337C107.27 244.295 107.332 244.226 107.27 244.074C107.244 244.032 107.211 243.995 107.17 243.967C107.13 243.938 107.084 243.919 107.035 243.909C106.49 243.778 105.428 244.24 104.842 244.557L104.807 244.544Z" fill="#407BFF"/>
<path d="M104.442 244.737C104.419 244.743 104.395 244.743 104.373 244.737C104.357 244.723 104.344 244.706 104.336 244.687C104.328 244.668 104.324 244.647 104.325 244.626C104.325 244.564 104.469 243.198 105.111 242.674C105.204 242.592 105.314 242.531 105.433 242.495C105.552 242.46 105.677 242.45 105.801 242.467C106.132 242.502 106.221 242.667 106.242 242.805C106.339 243.378 105.125 244.475 104.518 244.744L104.442 244.737ZM105.683 242.667C105.528 242.666 105.378 242.723 105.263 242.826C104.879 243.263 104.638 243.807 104.573 244.385C105.2 244.012 106.021 243.15 105.952 242.805C105.952 242.805 105.952 242.695 105.718 242.667H105.683Z" fill="#407BFF"/>
<path d="M103.904 244.026H98.3858C98.2847 244.026 98.1867 244.061 98.1087 244.125C98.0306 244.189 97.9774 244.279 97.9581 244.378L96.9511 248.882C96.9272 248.991 96.9281 249.103 96.9539 249.212C96.9797 249.32 97.0296 249.421 97.0999 249.507C97.1702 249.593 97.2591 249.663 97.36 249.71C97.4608 249.757 97.571 249.78 97.6822 249.779C99.6825 249.744 102.566 249.627 105.069 249.627C108.008 249.627 110.539 249.792 113.981 249.792C116.05 249.792 116.637 247.723 115.767 247.496C111.801 246.626 108.566 246.537 105.138 244.426C104.774 244.177 104.345 244.038 103.904 244.026V244.026Z" fill="#263238"/>
<path d="M100.179 232.887H105.249L104.159 241.433L99.1927 240.667L100.179 232.887Z" fill="#CF6F64"/>
<path d="M102.51 150.269C102.51 150.269 106.752 164.45 113.76 182.687C116.043 188.619 116.926 194.33 115.34 199.351C110.422 214.939 106.173 238.384 106.173 238.384L97.7235 237.467C97.7235 237.467 97.3994 213.553 100.393 201.227C101.931 194.902 101.407 192.599 99.8273 190.509C78.3071 161.877 84.0872 150.289 84.0872 150.289L102.51 150.269Z" fill="#407BFF"/>
<path opacity="0.3" d="M102.51 150.269C102.51 150.269 106.752 164.45 113.76 182.687C116.043 188.619 116.926 194.33 115.34 199.351C110.422 214.939 106.173 238.384 106.173 238.384L97.7235 237.467C97.7235 237.467 97.3994 213.553 100.393 201.227C101.931 194.902 101.407 192.599 99.8273 190.509C78.3071 161.877 84.0872 150.289 84.0872 150.289L102.51 150.269Z" fill="black"/>
<path d="M107.635 236.949L107.194 240.315L97.22 238.625L96.9235 235.549L107.635 236.949Z" fill="#407BFF"/>
<path opacity="0.1" d="M107.635 236.949L107.194 240.315L97.22 238.625L96.9235 235.549L107.635 236.949Z" fill="black"/>
<path d="M180.942 64.657H172.32V65.3468H180.942V64.657Z" fill="#407BFF"/>
<path opacity="0.2" d="M180.942 64.657H172.32V65.3468H180.942V64.657Z" fill="black"/>
<path d="M155.773 36.198H202.49C203.735 36.1998 204.928 36.6953 205.809 37.5758C206.689 38.4563 207.185 39.65 207.187 40.8952V58.2355C207.185 59.4807 206.689 60.6744 205.809 61.5549C204.928 62.4354 203.735 62.9308 202.49 62.9327H199.248L200.51 68.0299C198.678 67.8632 196.899 67.3253 195.282 66.449C193.664 65.5727 192.242 64.3763 191.102 62.9327H155.773C154.528 62.929 153.336 62.433 152.455 61.5529C151.575 60.6728 151.079 59.4801 151.076 58.2355V40.8952C151.079 39.6505 151.575 38.4579 152.455 37.5778C153.336 36.6977 154.528 36.2016 155.773 36.198Z" fill="#407BFF"/>
<path opacity="0.2" d="M155.773 36.198H202.49C203.735 36.1998 204.928 36.6953 205.809 37.5758C206.689 38.4563 207.185 39.65 207.187 40.8952V58.2355C207.185 59.4807 206.689 60.6744 205.809 61.5549C204.928 62.4354 203.735 62.9308 202.49 62.9327H199.248L200.51 68.0299C198.678 67.8632 196.899 67.3253 195.282 66.449C193.664 65.5727 192.242 64.3763 191.102 62.9327H155.773C154.528 62.929 153.336 62.433 152.455 61.5529C151.575 60.6728 151.079 59.4801 151.076 58.2355V40.8952C151.079 39.6505 151.575 38.4579 152.455 37.5778C153.336 36.6977 154.528 36.2016 155.773 36.198Z" fill="black"/>
<path d="M181.549 11.843H180.859V17.5886H181.549V11.843Z" fill="#407BFF"/>
<path opacity="0.1" d="M181.549 11.843H180.859V17.5886H181.549V11.843Z" fill="#FAFAFA"/>
<path d="M174.437 4.28333H127.721C126.478 4.28514 125.286 4.77871 124.406 5.65623C123.526 6.53375 123.029 7.7239 123.024 8.96672V26.3208C123.025 27.566 123.521 28.7597 124.401 29.6402C125.282 30.5207 126.476 31.0162 127.721 31.018H130.963L129.673 36.1152C131.508 35.9547 133.291 35.4218 134.914 34.549C136.536 33.6761 137.963 32.4817 139.108 31.0387H174.437C175.682 31.035 176.875 30.539 177.755 29.6589C178.635 28.7788 179.131 27.5861 179.135 26.3415V8.96672C179.127 7.72446 178.63 6.53536 177.75 5.65823C176.87 4.78109 175.68 4.28694 174.437 4.28333Z" fill="#407BFF"/>
<path opacity="0.1" d="M174.437 4.28333H127.721C126.478 4.28514 125.286 4.77871 124.406 5.65623C123.526 6.53375 123.029 7.7239 123.024 8.96672V26.3208C123.025 27.566 123.521 28.7597 124.401 29.6402C125.282 30.5207 126.476 31.0162 127.721 31.018H130.963L129.673 36.1152C131.508 35.9547 133.291 35.4218 134.914 34.549C136.536 33.6761 137.963 32.4817 139.108 31.0387H174.437C175.682 31.035 176.875 30.539 177.755 29.6589C178.635 28.7788 179.131 27.5861 179.135 26.3415V8.96672C179.127 7.72446 178.63 6.53536 177.75 5.65823C176.87 4.78109 175.68 4.28694 174.437 4.28333Z" fill="#FAFAFA"/>
</svg>
